<?xml version="1.0" encoding="UTF-8"?>
<svg width="133px" height="133px" viewBox="0 0 133 133" version="1.1" xmlns="http://www.w3.org/2000/svg" xmlns:xlink="http://www.w3.org/1999/xlink">
    <!-- Generator: Sketch 59.1 (86144) - https://sketch.com -->
    <title>laptop</title>
    <desc>Created with Sketch.</desc>
    <g id="Reporting" stroke="none" stroke-width="1" fill="none" fill-rule="evenodd" opacity="0.175455729">
        <g id="Reporting-home-Screen--JFC---menu" transform="translate(-170.000000, 0.000000)" fill="#FFFFFF" fill-rule="nonzero">
            <g id="side-nav" transform="translate(0.000000, -1.000000)">
                <g id="side-nav-drawer">
                    <g id="account-switcher">
                        <g id="header" transform="translate(0.000000, 0.500000)">
                            <g id="laptop" transform="translate(170.000000, 0.500000)">
                                <polygon id="Path" points="13 121 17 121 17 125 13 125"></polygon>
                                <polygon id="Path" points="22 121 26 121 26 125 22 125"></polygon>
                                <polygon id="Path" points="30 121 34 121 34 125 30 125"></polygon>
                                <polygon id="Path" points="104 121 121 121 121 125 104 125"></polygon>
                                <path d="M128.709677,111.548387 L128.709677,40.7580645 C128.709677,34.8442066 123.897729,30.0322581 117.983871,30.0322581 L111.548387,30.0322581 C111.548387,13.471152 98.0772351,0 81.516129,0 C64.9550229,0 51.483871,13.471152 51.483871,30.0322581 L15.016129,30.0322581 C9.10227116,30.0322581 4.29032258,34.8442066 4.29032258,40.7580645 L4.29032258,111.548387 L0,111.548387 L0,122.274194 C0,128.188051 4.81194858,133 10.7258065,133 L122.274194,133 C128.188051,133 133,128.188051 133,122.274194 L133,111.548387 L128.709677,111.548387 Z M117.983871,34.3225806 C121.531557,34.3225806 124.419355,37.2103783 124.419355,40.7580645 L124.419355,111.548387 L120.129032,111.548387 L120.129032,42.9032258 C120.129032,40.5370542 118.204881,38.6129032 115.83871,38.6129032 L110.283077,38.6129032 C110.696817,37.2229476 110.995338,35.7879521 111.204826,34.3225806 L117.983871,34.3225806 Z M57.0206497,22.1492092 L79.7888972,31.6369393 L87.5850081,55.0210827 C85.6346711,55.4955741 83.6099657,55.7741935 81.516129,55.7741935 C67.3211946,55.7741935 55.7741935,44.2271925 55.7741935,30.0322581 C55.7741935,27.2816754 56.218309,24.6347893 57.0206497,22.1492092 L57.0206497,22.1492092 Z M91.6606051,53.6824519 L83.9702858,30.6114934 L101.152525,13.4282069 C104.953692,17.9144012 107.258065,23.7057082 107.258065,30.0322581 C107.258065,40.6250393 100.822581,49.737785 91.6606051,53.6824519 Z M81.516129,4.29032258 C87.8426789,4.29032258 93.6339859,6.59469506 98.1222752,10.3937674 L81.0164992,27.4984957 L58.68294,18.1951157 C62.9753576,9.9454622 71.5905683,4.29032258 81.516129,4.29032258 Z M8.58064516,40.7580645 C8.58064516,37.2103783 11.4684428,34.3225806 15.016129,34.3225806 L51.827432,34.3225806 C52.0369204,35.7879521 52.3333465,37.2229476 52.7491809,38.6129032 L17.1612903,38.6129032 C14.7951187,38.6129032 12.8709677,40.5370542 12.8709677,42.9032258 L12.8709677,111.548387 L8.58064516,111.548387 L8.58064516,40.7580645 Z M128.709677,122.274194 C128.709677,125.82188 125.82188,128.709677 122.274194,128.709677 L10.7258065,128.709677 C7.17812021,128.709677 4.29032258,125.82188 4.29032258,122.274194 L4.29032258,115.83871 L48.4850444,115.83871 C51.5697611,118.612336 55.5165227,120.129032 59.6979113,120.129032 L73.3041835,120.129032 C77.4855721,120.129032 81.4323337,118.612336 84.5170504,115.83871 L111.548387,115.83871 L111.548387,111.548387 L82.7730595,111.548387 L82.1445943,112.176852 C79.7826124,114.538834 76.6444761,115.83871 73.3020887,115.83871 L59.6958165,115.83871 C56.3555239,115.83871 53.2152926,114.538834 50.853311,112.176852 L50.2269405,111.548387 L17.1612903,111.548387 L17.1612903,42.9032258 L54.4229935,42.9032258 C59.2558909,53.0330378 69.5658629,60.0645161 81.516129,60.0645161 C93.4663952,60.0645161 103.776367,53.0330378 108.609265,42.9032258 L115.83871,42.9032258 L115.83871,115.83871 L128.709677,115.83871 L128.709677,122.274194 Z" id="Shape"></path>
                                <path d="M104.571429,89.8571429 C103.256208,89.8571429 102.032017,90.2578823 101.011858,90.9390345 L93.5359235,85.3339146 C93.7263533,84.7270507 93.8571429,84.0950753 93.8571429,83.4285714 C93.8571429,79.8846958 90.9724471,77 87.4285714,77 C83.8846958,77 81,79.8846958 81,83.4285714 C81,84.1662248 81.1496234,84.8641183 81.3787666,85.5243444 L69.3775112,95.1263951 C68.3939732,94.5132532 67.2430246,94.1428571 66,94.1428571 C64.5581754,94.1428571 63.2398157,94.637765 62.1662946,95.4413364 L52.9262695,89.2806221 C53.0549665,88.7773437 53.1428571,88.2583705 53.1428571,87.7142857 C53.1428571,84.1704101 50.2581613,81.2857143 46.7142857,81.2857143 C43.1704101,81.2857143 40.2857143,84.1704101 40.2857143,87.7142857 C40.2857143,88.2583705 40.3736049,88.7773437 40.502302,89.2806221 L31.2622768,95.4413364 C30.1887557,94.6356725 28.8703961,94.1428571 27.4285714,94.1428571 C23.8846958,94.1428571 21,97.0275529 21,100.571429 C21,104.115304 23.8846958,107 27.4285714,107 C30.9724471,107 33.8571429,104.115304 33.8571429,100.571429 C33.8571429,100.027344 33.7692522,99.5083705 33.6405552,99.0050921 L42.8805804,92.8443779 C43.9541014,93.6500418 45.2724611,94.1428571 46.7142857,94.1428571 C48.1561104,94.1428571 49.47447,93.6500418 50.5479911,92.8443779 L59.7880163,99.0050921 C59.6593192,99.5083705 59.5714286,100.029436 59.5714286,100.571429 C59.5714286,104.115304 62.4561244,107 66,107 C69.5438756,107 72.4285714,104.115304 72.4285714,100.571429 C72.4285714,99.8337752 72.278948,99.1358817 72.0498048,98.4756556 L84.0510603,88.8736049 C85.0345982,89.4867468 86.1855469,89.8571429 87.4285714,89.8571429 C88.7437918,89.8571429 89.9679828,89.4564034 90.9881416,88.7752512 L98.4640765,94.3803712 C98.2736467,94.987235 98.1428571,95.6192104 98.1428571,96.2857143 C98.1428571,99.8295899 101.027553,102.714286 104.571429,102.714286 C108.115304,102.714286 111,99.8295899 111,96.2857143 C111,92.7418387 108.115304,89.8571429 104.571429,89.8571429 L104.571429,89.8571429 Z M27.4285714,102.714286 C26.2483259,102.714286 25.2857143,101.751674 25.2857143,100.571429 C25.2857143,99.391183 26.2483259,98.4285714 27.4285714,98.4285714 C28.608817,98.4285714 29.5714286,99.391183 29.5714286,100.571429 C29.5714286,101.751674 28.608817,102.714286 27.4285714,102.714286 Z M46.7142857,89.8571429 C45.5340402,89.8571429 44.5714286,88.8945312 44.5714286,87.7142857 C44.5714286,86.5340402 45.5340402,85.5714286 46.7142857,85.5714286 C47.8945313,85.5714286 48.8571429,86.5340402 48.8571429,87.7142857 C48.8571429,88.8945312 47.8945313,89.8571429 46.7142857,89.8571429 Z M66,102.714286 C64.8197545,102.714286 63.8571429,101.751674 63.8571429,100.571429 C63.8571429,99.391183 64.8197545,98.4285714 66,98.4285714 C67.1802455,98.4285714 68.1428571,99.391183 68.1428571,100.571429 C68.1428571,101.751674 67.1802455,102.714286 66,102.714286 Z M87.4285714,85.5714286 C86.2483259,85.5714286 85.2857143,84.608817 85.2857143,83.4285714 C85.2857143,82.2483259 86.2483259,81.2857143 87.4285714,81.2857143 C88.608817,81.2857143 89.5714286,82.2483259 89.5714286,83.4285714 C89.5714286,84.608817 88.608817,85.5714286 87.4285714,85.5714286 Z M104.571429,98.4285714 C103.391183,98.4285714 102.428571,97.4659598 102.428571,96.2857143 C102.428571,95.1054687 103.391183,94.1428571 104.571429,94.1428571 C105.751674,94.1428571 106.714286,95.1054687 106.714286,96.2857143 C106.714286,97.4659598 105.751674,98.4285714 104.571429,98.4285714 Z" id="Shape"></path>
                                <path d="M56,47 L21,47 L21,77 L56,77 L56,47 Z M51.625,72.7142857 L25.375,72.7142857 L25.375,51.2857143 L51.625,51.2857143 L51.625,72.7142857 Z" id="Shape"></path>
                                <polygon id="Path" points="30 56 47 56 47 60 30 60"></polygon>
                                <polygon id="Path" points="30 65 47 65 47 69 30 69"></polygon>
                                <polygon id="Path" points="60 69 64 69 64 73 60 73"></polygon>
                                <polygon id="Path" points="69 69 112 69 112 73 69 73"></polygon>
                            </g>
                        </g>
                    </g>
                </g>
            </g>
        </g>
    </g>
</svg>