<svg xmlns="http://www.w3.org/2000/svg" xmlns:xlink="http://www.w3.org/1999/xlink" width="43" height="54" viewBox="0 0 43 54">
    <defs>
        <path id="a" d="M.14.083h13.402v12.749H.14z"/>
        <path id="c" d="M.015.094h5.137v13.36H.015z"/>
    </defs>
    <g fill="none" fill-rule="evenodd">
        <path fill="#FFF" d="M6.101 10.192c-.718.912-2.192 2.714-2.192 2.714 1.258-1.109 3.271-.105 6.57-3.973 1.83-1.81 3.899-2.918 6.332-3.507l-.031-.13c-2.999.61-5.232 2.128-7.229 3.71-1.281.057-2.442-.102-3.45 1.186zm5.04-4.992c1.116-.958 3.047-1.822 5.086-2.303l-.035-.153c-1.9.417-3.736 1.184-5.444 2.086-.996.073-1.983.354-2.646.942-.691.614-.774 1.37-.346 1.812.428.442 1.299.351 1.913-.193.676-.601 1.138-1.397 1.472-2.191zM15.67.495l-.032-.142c-4.053.836-7.5 2.825-10.087 5.53-.108.106-.214.212-.285.303-2.063 2.242-1.383 5.061-1.854 6.41l2.546-3.671c.843-1.204.437-1.815.111-2.746 2.512-3.03 5.752-4.839 9.6-5.684zm1.007-.2c-.34.06-.675.127-1.008.2l-.03-.142c.357-.075.718-.14 1.084-.196l-.046.139zM.431 15.255C.43 18.95 2.577 21.06 3.21 23.609c.015.072.031.14.048.21l.032.154-.014-.077a17.318 17.318 0 0 0 1.858 4.715l.004.005C3.125 26.925-1.412 23.576.43 15.255"/>
        <path fill="#FFF" d="M4.082 20.434c.791-1.603 1.207-1.567 1.482-2.998.972 4.907-1.539 8.107-.383 11.29a17.322 17.322 0 0 1-1.857-4.715c-.284-1.563.218-2.482.758-3.577M3.229 8.712c-1.19 2.936-.201 5.424-.403 7.68-.008.129-.037.477-.037 1.048 0 .759.061 1.504.18 2.231v.003c-.402-2.158-4.325-5.571.26-10.962"/>
        <path fill="#FFF" d="M2.939 16.341c-.018.22.266-1.179 1.406-2.248.93-.876 1.959-.861 2.685-1.69-.87 4.57-3.86 4.463-3.949 7.217a13.818 13.818 0 0 1-.18-2.231c0-.571.029-.92.038-1.048M7.54 32.65l-.075-.099c2.817 3.634 7.767 6.254 12.529 7.087 0 0 .002.229-.55.205C16.749 39.723 3.88 37.2.512 24.313c1.937 4.448 4.698 5.963 7.028 8.337"/>
        <path fill="#FFF" d="M7.542 32.723c-2.575-3.425-.868-6.154-.553-6.9 0 2.68 1.926 9.35 12.539 13.37.385.138.565.382.533.553-4.761-.833-9.702-3.39-12.52-7.023"/>
        <g transform="translate(25.937 .157)">
            <mask id="b" fill="#fff">
                <use xlink:href="#a"/>
            </mask>
            <path fill="#FFF" d="M7.403 8.932C5.406 7.35 3.17 5.832.173 5.222l-.033.13c2.437.59 4.504 1.697 6.336 3.507 3.298 3.868 5.309 2.864 6.567 3.973 0 0-1.475-1.802-2.191-2.714-1.007-1.288-2.17-1.13-3.45-1.186zm-.12-1.615c.616.545 1.486.635 1.914.193.428-.442.345-1.198-.345-1.812C8.19 5.11 7.2 4.83 6.205 4.757 4.495 3.854 2.661 3.087.761 2.67l-.035.153c2.038.481 3.972 1.346 5.086 2.303.335.794.798 1.59 1.472 2.19zm3.6-1.212c-.326.931-.731 1.542.11 2.746l2.549 3.671c-.473-1.349.208-4.168-1.856-6.41a3.445 3.445 0 0 0-.285-.303C8.814 3.104 5.367 1.115 1.314.279l-.032.142c3.85.845 7.088 2.654 9.6 5.684zM.228.082C.596.14.956.204 1.314.28l-.032.142C.95.348.614.281.275.221L.228.084z" mask="url(#b)"/>
        </g>
        <g transform="translate(37.71 15.255)">
            <mask id="d" fill="#fff">
                <use xlink:href="#c"/>
            </mask>
            <path fill="#FFF" d="M4.72.094c.003 3.696-2.144 5.805-2.777 8.354-.015.072-.032.14-.048.21l-.034.154.013-.078A17.294 17.294 0 0 1 .018 13.45l-.003.006C2.025 11.763 6.565 8.414 4.72.094" mask="url(#d)"/>
        </g>
        <path fill="#FFF" d="M38.91 20.434c-.79-1.603-1.207-1.567-1.482-2.998-.974 4.907 1.538 8.107.382 11.29a17.298 17.298 0 0 0 1.856-4.715c.286-1.563-.217-2.482-.756-3.577M39.587 8.712c1.192 2.936.203 5.424.403 7.68.007.129.038.477.038 1.048 0 .759-.061 1.504-.18 2.231v.003c.402-2.158 4.324-5.571-.26-10.962"/>
        <path fill="#FFF" d="M40.094 16.341c.018.22-.266-1.179-1.406-2.248-.93-.876-1.96-.861-2.684-1.69.87 4.57 3.857 4.463 3.948 7.217.118-.727.18-1.472.18-2.231 0-.571-.03-.92-.038-1.048M35.32 32.65l.074-.099c-2.816 3.634-7.767 6.254-12.529 7.087 0 0 0 .229.55.205 2.695-.12 15.563-2.643 18.932-15.53-1.938 4.448-4.699 5.963-7.027 8.337"/>
        <path fill="#FFF" d="M35.387 32.723c2.577-3.425.869-6.154.552-6.9 0 2.68-1.926 9.35-12.536 13.37-.387.138-.566.382-.534.553 4.762-.833 9.704-3.39 12.518-7.023M13.712 22.29c1.256.402 5.178-2.69 5.202-2.705 0 0-1.344-4.765-2.6-5.169a7.118 7.118 0 0 1-.43 1.004c-1.268-.147-5.728.317-7.523.795 1.232 1.506 4.506 4.449 5.603 5.049a6.617 6.617 0 0 1-.252 1.026"/>
        <path fill="#FFF" d="M17.36 19.133l-3.126-.997-5.873-1.875c1.233 1.508 4.506 4.45 5.603 5.049a6.95 6.95 0 0 1-.25 1.028c1.253.402 5.179-2.688 5.2-2.708l-1.554-.497M19.829 22.655s-5.024-.218-5.8.835c.3.214.578.458.837.711-.536 1.139-1.466 5.455-1.556 7.281 1.837-.686 5.695-2.838 6.613-3.68.301.154.611.333.916.553.777-1.049-1-5.67-1.01-5.698v-.002"/>
        <path fill="#FFF" d="M19.83 22.636l-.961 1.3-5.56 7.524c1.84-.684 5.696-2.836 6.615-3.678.302.153.61.333.917.553.774-1.048-1-5.67-1.01-5.699M29.022 23.474c-.775-1.048-5.797-.816-5.826-.816 0 0-1.763 4.632-.987 5.681.302-.214.623-.396.947-.561.938.852 4.826 3.056 6.562 3.704-.095-1.93-.986-6.202-1.514-7.321.242-.233.51-.466.818-.687"/>
        <path fill="#FFF" d="M26.089 26.548l-2.894-3.912s-1.762 4.63-.985 5.682c.3-.215.622-.4.947-.564.936.853 4.824 3.055 6.561 3.705l-3.63-4.91M27.059 15.392a6.593 6.593 0 0 1-.412-.976c-1.252.402-2.579 5.164-2.587 5.196v.002s3.931 3.077 5.188 2.675a7.087 7.087 0 0 1-.251-1.059c1.116-.613 4.449-3.566 5.611-4.99-1.896-.507-6.301-.994-7.55-.848"/>
        <path fill="#FFF" d="M34.612 16.261l-5.874 1.877-3.126.996-1.552.5s3.934 3.079 5.191 2.677A6.71 6.71 0 0 1 29 21.252c1.115-.615 4.447-3.567 5.613-4.99M25.656 13.747c-.373 0-.743-.037-1.103-.092-.25-1.23-2.077-5.26-3.094-6.788-1.077 1.616-2.91 5.586-3.151 6.798-.337.05-.693.082-1.074.082 0 1.278 4.09 3.936 4.221 4.022v.007l.007-.003s4.194-2.726 4.194-4.026"/>
        <path fill="#FFF" d="M24.598 13.655c-.25-1.23-2.077-5.258-3.094-6.788l-.003 6.068v3.231l-.001 1.606.006.001s4.193-2.726 4.193-4.026c-.372 0-.74-.037-1.1-.092M24.254 43.941c1.048 0 2.125.048 3.151.436l-.792 1.217a7.982 7.982 0 0 0-1.675-.173c-3.11 0-4.819 1.417-4.819 3.343 0 2.01 1.69 3.301 4.825 3.301.622 0 1.34-.082 1.962-.217l.518 1.263c-.983.31-2.122.47-3.28.47-3.394 0-6.906-1.422-6.906-4.817 0-3.405 3.613-4.823 7.016-4.823m-15.19 0c-3.068 0-6.334 1.498-6.334 4.81 0 3.26 3.198 4.839 6.333 4.839 3.139 0 6.335-1.58 6.335-4.84 0-3.31-3.266-4.809-6.335-4.809m0 8.303c-2.022 0-3.45-1.456-3.45-3.493 0-2.04 1.368-3.5 3.45-3.5 2.086 0 3.453 1.46 3.453 3.5 0 2.037-1.428 3.493-3.453 3.493m24.845-8.303c3.65 0 6.165 1.466 6.165 3.675 0 2.592-3.033 3.588-5.59 3.588a8.7 8.7 0 0 1-.97-.055l.458-.946c.082.005.124.005.19.005 1.586 0 3.03-.81 3.03-2.417 0-1.748-1.553-2.48-3.357-2.48-.403 0-.819.04-1.238.11v8.005h-2.82v-8.934c1.37-.36 2.737-.55 4.132-.55"/>
    </g>
</svg>
