<?xml version="1.0" encoding="UTF-8"?>
<svg width="40px" height="40px" viewBox="0 0 40 40" version="1.1" xmlns="http://www.w3.org/2000/svg" xmlns:xlink="http://www.w3.org/1999/xlink">
    <!-- Generator: Sketch 59.1 (86144) - https://sketch.com -->
    <title>Path</title>
    <desc>Created with Sketch.</desc>
    <g id="Reporting" stroke="none" stroke-width="1" fill="none" fill-rule="evenodd">
        <g id="Reporting-home-Screen--JFC---menu" transform="translate(-16.000000, -68.000000)" fill="#FFFFFF" fill-rule="nonzero">
            <g id="side-nav" transform="translate(0.000000, -1.000000)">
                <g id="side-nav-drawer">
                    <g id="account-switcher">
                        <g id="header" transform="translate(0.000000, 0.500000)">
                            <g id="logo-MyKPIs-2" transform="translate(16.000000, 68.500000)">
                                <path d="M13.9999091,16.8703616 L7.62336823,23.1064793 C7.50784455,23.2197331 7.33549461,23.2527298 7.18617498,23.1901807 C7.03685534,23.1276315 6.9397408,22.9817577 6.93982836,22.8201484 L6.93982836,6.38349386 C6.93982689,6.2767567 6.98245887,6.17442166 7.05828592,6.09914493 C7.13411297,6.0238682 7.23687964,5.98185982 7.34383418,5.98242012 L24.0177766,6.0403179 C24.1806073,6.04066125 24.3271394,6.13902064 24.3888466,6.28939807 C24.4505538,6.43977549 24.4152402,6.61244995 24.2994203,6.72666981 L17.9513603,12.9975262 C17.7949826,13.1540565 17.7949826,13.4073414 17.9513603,13.5638718 L22.5188411,18.1893784 C22.5942404,18.2662162 22.6974665,18.3095198 22.8052317,18.3095198 C22.9129969,18.3095198 23.016223,18.2662162 23.0916222,18.1893784 L39.8826525,1.16111374 C40.0008436,1.04362332 40.0332496,0.865125061 39.9638756,0.713721774 C39.7585801,0.279104088 39.3208794,0.00128628917 38.8394103,0 L1.64555894,0 C0.738114394,0.00231147023 0.00289809099,0.735552999 0,1.641139 L0,38.3578082 C0.00289512638,39.2635662 0.737943737,39.9971107 1.64555894,40 L36.9195915,40 C37.117886,40 37.2965599,39.8805446 37.3717578,39.6974372 C37.4469557,39.5143298 37.4037493,39.3040233 37.2624163,39.1652192 L14.5631966,16.8703616 C14.4068449,16.717082 14.1562608,16.717082 13.9999091,16.8703616 Z" id="Path"></path>
                            </g>
                        </g>
                    </g>
                </g>
            </g>
        </g>
    </g>
</svg>