<?xml version="1.0" encoding="UTF-8"?>
<svg width="125px" height="160px" viewBox="0 0 125 160" version="1.1" xmlns="http://www.w3.org/2000/svg" xmlns:xlink="http://www.w3.org/1999/xlink">
    <!-- Generator: Sketch 51.1 (57501) - http://www.bohemiancoding.com/sketch -->
    <title>Logo/logo-primary</title>
    <desc>Created with Sketch.</desc>
    <defs>
        <polygon id="path-1" points="0.407688492 0.244554327 39.3660218 0.244554327 39.3660218 38.0204934 0.407688492 38.0204934"></polygon>
        <polygon id="path-3" points="0.0427579365 0.277062159 14.9761905 0.277062159 14.9761905 39.8660336 0.0427579365 39.8660336"></polygon>
    </defs>
    <g id="Sprint-4-" stroke="none" stroke-width="1" fill="none" fill-rule="evenodd" opacity="0.8">
        <g id="Logo/logo-secondary">
            <g id="OCP-logo/Secondary">
                <path d="M17.7356151,30.1974888 C15.6468254,32.9000129 11.3640873,38.2394491 11.3640873,38.2394491 C15.0198413,34.9543687 20.8720238,37.9277914 30.4598214,26.4675383 C35.78125,21.1052373 41.7956349,17.8226422 48.8695437,16.0779558 L48.7782738,15.6902478 C40.062004,17.4995521 33.5689484,21.9969659 27.765377,26.6827659 C24.0406746,26.852761 20.6661706,26.3825407 17.7356151,30.1974888 Z M32.3864087,15.4059285 C35.6304563,12.5701918 41.2445437,10.0098273 47.172123,8.58375748 L47.0689484,8.1299402 C41.5486111,9.36513837 36.2093254,11.6372071 31.2445437,14.3123929 C28.3487103,14.5281176 25.4796627,15.3601988 23.5535714,17.1023999 C21.5426587,18.9206514 21.3020833,21.1623994 22.546627,22.4716597 C23.7911706,23.780423 26.3214286,23.5125068 28.1081349,21.8985476 C30.0714286,20.1170787 31.4166667,17.7605095 32.3864087,15.4059285 Z M45.5525794,1.46782303 L45.4632937,1.04581769 C33.6810516,3.52168173 23.6587302,9.41583866 16.1388889,17.4299635 C15.8253968,17.7465918 15.516369,18.0582494 15.3105159,18.329148 C9.31448413,24.9703886 11.2911706,33.3245036 9.92063492,37.3223704 C9.92063492,37.3223704 16.5367063,27.5953711 17.3239087,26.4441764 C19.7718254,22.877262 18.593254,21.0659694 17.6463294,18.3082714 C24.9469246,9.32885287 34.3650794,3.97102545 45.5525794,1.46782303 Z M48.4831349,0.876319673 C47.4925595,1.05277656 46.5198413,1.25011003 45.5525794,1.46782303 L45.4632937,1.04581769 C46.5039683,0.823631139 47.5515873,0.63325653 48.6155754,0.463758511 L48.4831349,0.876319673 Z" id="Fill-1" fill="#FFFFFF"></path>
                <path d="M1.25390853,45.1993062 C1.24696409,56.1505683 7.4924998,62.4021125 9.32732123,69.953473 C9.37097202,70.1667124 9.41859107,70.3660341 9.46670615,70.5772853 L9.56095218,71.0311026 L9.52176567,70.8019572 C10.6497419,75.7511999 12.479603,80.4414736 14.9210712,84.7718746 L14.93248,84.7882776 C9.0847617,79.7769022 -4.10422639,69.8525694 1.25390853,45.1993062" id="Fill-3" fill="#FFFFFF"></path>
                <path d="M11.8654299,60.5465814 C14.1670172,55.7966604 15.3748545,55.9020374 16.1734656,51.6611075 C19.0008466,66.2021488 11.7007474,75.6840966 15.0613625,85.1128589 C12.6203902,80.7824579 10.7905291,76.0921842 9.66255294,71.1424444 C8.83864421,66.5138064 10.2959855,63.7904057 11.8654299,60.5465814" id="Fill-5" fill="#FFFFFF"></path>
                <path d="M9.38553386,25.8139022 C5.92868863,34.5119838 8.80220053,41.8844021 8.21638704,48.5693841 C8.19108942,48.9501333 8.10676402,49.9815362 8.10676402,51.6735341 C8.10676402,53.9222409 8.28483942,56.1301887 8.63057355,58.2849509 L8.63057355,58.2919098 C7.46142672,51.9001942 -3.94085502,41.7859839 9.38553386,25.8139022" id="Fill-7" fill="#FFFFFF"></path>
                <path d="M8.5421627,48.4182774 C8.49156746,49.0714164 9.31746032,44.9244311 12.6304563,41.7561602 C15.3343254,39.1610014 18.3244048,39.2047428 20.4365079,36.7492583 C17.905754,50.2887203 9.2172619,49.9725891 8.95634921,58.1338442 C8.61061508,55.9785849 8.43253968,53.7711342 8.43253968,51.5224273 C8.43253968,49.8304295 8.51686508,48.7990266 8.5421627,48.4182774" id="Fill-9" fill="#FFFFFF"></path>
                <path d="M21.9176587,96.7396277 L21.7003968,96.4488467 C29.8883929,107.214208 44.2802579,114.978808 58.1215278,117.445724 C58.1215278,117.445724 58.1279762,118.124214 56.5223214,118.053134 C48.6889881,117.695249 11.2797619,110.221928 1.48809524,72.0406348 C7.11855159,85.2177389 15.1463294,89.7067026 21.9176587,96.7396277" id="Fill-11" fill="#FFFFFF"></path>
                <path d="M21.9241662,96.9563466 C14.4385511,86.8093303 19.4008527,78.7241256 20.3160313,76.5141896 C20.3160313,84.4507728 25.9162297,104.216429 56.7669241,116.128511 C57.8854757,116.536599 58.4092852,117.258829 58.3180154,117.765335 C44.4767456,115.298418 30.1121622,107.724193 21.9241662,96.9563466" id="Fill-13" fill="#FFFFFF"></path>
                <g id="Group-17" transform="translate(75.396825, 0.463759)">
                    <mask id="mask-2" fill="white">
                        <use xlink:href="#path-1"></use>
                    </mask>
                    <g id="Clip-16"></g>
                    <path d="M21.5192956,26.4638103 C15.7152282,21.7780102 9.21770833,17.2800994 0.501934524,15.4712921 L0.407688492,15.8590002 C7.49102183,17.6031895 13.5009425,20.8862816 18.8263393,26.2480855 C28.4141369,37.7088358 34.2573909,34.7354131 37.915625,38.0204934 C37.915625,38.0204934 33.6284226,32.6810573 31.5465774,29.9780361 C28.618502,26.1635851 25.2390377,26.6333083 21.5192956,26.4638103 Z M21.1740575,21.679592 C22.962748,23.2935511 25.4910218,23.5614674 26.7355655,22.252207 C27.9796131,20.9434437 27.7370536,18.7011986 25.7330853,16.8834442 C23.8045139,15.1412432 20.9290179,14.309162 18.0391369,14.0934372 C13.0684028,11.4182515 7.73556548,9.14618272 2.21274802,7.91048748 L2.11006944,8.36430476 C8.03516865,9.79087167 13.6562004,12.3512362 16.8957837,15.1869728 C17.8704861,17.5415538 19.2152282,19.8981231 21.1740575,21.679592 Z M31.6358631,18.0893158 C30.6884425,20.8475108 29.5103671,22.6583064 31.9538194,26.2257178 C32.743006,27.3764155 39.3660218,37.1034147 39.3660218,37.1034147 C37.9910218,33.1050509 39.9696925,24.7514329 33.9716766,18.1101924 C33.7653274,17.8392938 33.4562996,17.5276361 33.1413194,17.2115049 C25.6234623,9.19688301 15.603125,3.30272607 3.82088294,0.82686204 L3.72762897,1.24886737 C14.9190972,3.7520698 24.3308036,9.10989722 31.6358631,18.0893158 Z M0.664136905,0.244305796 C1.73209325,0.414300878 2.77822421,0.604675486 3.82088294,0.82686204 L3.72762897,1.24886737 C2.75739087,1.03115437 1.78516865,0.833820902 0.799553571,0.65736402 L0.664136905,0.244802858 L0.664136905,0.244305796 Z" id="Fill-15" fill="#FFFFFF" mask="url(#mask-2)"></path>
                </g>
                <g id="Group-20" transform="translate(109.623016, 45.199306)">
                    <mask id="mask-4" fill="white">
                        <use xlink:href="#path-3"></use>
                    </mask>
                    <g id="Clip-19"></g>
                    <path d="M13.7213294,0.277062159 C13.7302579,11.2283242 7.48720238,17.4798685 5.64791667,25.0312289 C5.60426587,25.2444684 5.55615079,25.4437901 5.50803571,25.6550413 L5.40982143,26.1088586 L5.4485119,25.8797132 C4.32301587,30.8289559 2.49265873,35.5192296 0.0516865079,39.8496306 L0.0427579365,39.8660336 C5.88551587,34.8546581 19.0839286,24.9303254 13.7213294,0.277062159" id="Fill-18" fill="#FFFFFF" mask="url(#mask-4)"></path>
                </g>
                <path d="M113.109904,60.5465814 C110.815261,55.7966604 109.600976,55.9020374 108.801869,51.6611075 C105.972007,66.2021488 113.274587,75.6840966 109.911988,85.1128589 C112.35296,80.7824579 114.182821,76.0921842 115.308813,71.1424444 C116.138674,66.5138064 114.676869,63.7904057 113.109904,60.5465814" id="Fill-21" fill="#FFFFFF"></path>
                <path d="M115.079365,25.8139022 C118.543155,34.5119838 115.669643,41.8844021 116.250496,48.5693841 C116.271329,48.9501333 116.360615,49.9815362 116.360615,51.6735341 C116.360615,53.9222409 116.18254,56.1301887 115.83879,58.2849509 L115.83879,58.2919098 C117.005952,51.9001942 128.407738,41.7859839 115.079365,25.8139022" id="Fill-23" fill="#FFFFFF"></path>
                <path d="M116.552083,48.4182774 C116.604663,49.0714164 115.77877,44.9244311 112.464286,41.7561602 C109.759921,39.1610014 106.769841,39.2047428 104.662698,36.7492583 C107.190972,50.2887203 115.875,49.9725891 116.140377,58.1338442 C116.483631,55.9785849 116.662202,53.7711342 116.662202,51.5224273 C116.662202,49.8304295 116.572917,48.7990266 116.552083,48.4182774" id="Fill-25" fill="#FFFFFF"></path>
                <path d="M102.673611,96.7396277 L102.890873,96.4488467 C94.703373,107.214208 80.3110119,114.978808 66.468254,117.445724 C66.468254,117.445724 66.4657738,118.124214 68.0669643,118.053134 C75.9022818,117.695249 113.309524,110.221928 123.10119,72.0406348 C117.46875,85.2177389 109.442956,89.7067026 102.673611,96.7396277" id="Fill-27" fill="#FFFFFF"></path>
                <path d="M102.869433,96.9563466 C110.361496,86.8093303 105.395227,78.7241256 104.475088,76.5141896 C104.475088,84.4507728 98.8748893,104.216429 68.0316353,116.128511 C66.9081234,116.536599 66.3867941,117.258829 66.4785599,117.765335 C80.3213179,115.298418 94.6883814,107.724193 102.869433,96.9563466" id="Fill-29" fill="#FFFFFF"></path>
                <path d="M39.859623,66.0450773 C43.5109127,67.2350428 54.9131944,58.0761851 54.9816468,58.0284671 L54.984127,58.0284671 C54.984127,58.0284671 51.0763889,43.9109224 47.4250992,42.713998 C47.0887897,43.7458979 46.6542659,44.73853 46.1760913,45.6874207 C42.4880952,45.2519947 29.5238095,46.6278613 24.3055556,48.044487 C27.8854167,52.5056152 37.4027778,61.2265617 40.5917659,63.00306 C40.4340278,63.9748155 40.2053571,64.9927978 39.859623,66.0450773" id="Fill-31" fill="#FFFFFF"></path>
                <path d="M50.4657738,56.6893831 L41.3764881,53.7368369 L24.3055556,48.181676 C27.890377,52.6497631 37.4047619,61.3637507 40.5917659,63.1407461 C40.4340278,64.1144899 40.2053571,65.1279986 39.8665675,66.1872369 C43.5089286,67.3767054 54.9201389,58.22083 54.984127,58.1631708 L50.4657738,56.6893831" id="Fill-33" fill="#FFFFFF"></path>
                <path d="M57.6423611,67.1250403 C57.6423611,67.1250403 43.0372024,66.4808484 40.781746,69.6009044 C41.6532738,70.2336638 42.4608135,70.9578826 43.2157738,71.7079487 C41.6577381,75.0800148 38.953869,87.8699079 38.6904762,93.2804239 C44.0327381,91.2469447 55.2470238,84.8716321 57.9166667,82.3773768 C58.7906746,82.8311941 59.6919643,83.3625529 60.5798611,84.016189 C62.8377976,80.9075655 57.6741071,67.2145114 57.6423611,67.1319992 L57.6423611,67.1250403" id="Fill-35" fill="#FFFFFF"></path>
                <path d="M57.6468254,67.0700184 L54.8511905,70.921749 L38.6904762,93.2134724 C44.0391865,91.1869521 55.2470238,84.8116395 57.9191468,82.3173842 C58.7951389,82.7712015 59.6894841,83.3035545 60.5843254,83.9542082 C62.8333333,80.8500582 57.6765873,67.1570042 57.6468254,67.0700184" id="Fill-37" fill="#FFFFFF"></path>
                <path d="M84.3668676,69.5511193 C82.1133954,66.4469694 67.5151811,67.1349027 67.4288716,67.1349027 C67.4288716,67.1349027 62.3063518,80.8597687 64.5618081,83.9683922 C65.4382962,83.3336445 66.3718279,82.7948297 67.3137922,82.3042299 C70.0409748,84.8307942 81.3425621,91.3596988 86.3891891,93.2808421 C86.1128994,87.5586685 83.5226216,74.9039761 81.9874033,71.5870838 C82.6922645,70.8966652 83.4700422,70.2067436 84.3668676,69.5511193" id="Fill-39" fill="#FFFFFF"></path>
                <path d="M75.8394693,78.6609988 L67.4272669,67.0700184 L67.4247867,67.0700184 C67.4247867,67.0700184 62.3052431,80.7909079 64.5631796,83.904005 C65.4366915,83.2687602 66.3727034,82.71901 67.3171478,82.234872 C70.037882,84.7614363 81.3389732,91.2858674 86.3905605,93.2114842 L75.8394693,78.6609988" id="Fill-41" fill="#FFFFFF"></path>
                <path d="M78.6587302,45.6073938 C78.2147817,44.7315712 77.8030754,43.7737334 77.4623016,42.713998 C73.8224206,43.9039635 69.9657738,58.0140523 69.9404762,58.1104823 L69.9404762,58.1154529 C69.9404762,58.1154529 81.3700397,67.2325575 85.0233135,66.042592 C84.6914683,65.0181479 84.4652778,63.9589096 84.2931548,62.9041448 C87.5372024,61.0888757 97.2261905,52.3381055 100.605159,48.1200404 C95.094246,46.6159319 82.2872024,45.173956 78.6587302,45.6073938" id="Fill-43" fill="#FFFFFF"></path>
                <path d="M100.617063,48.181676 L83.5411706,53.7413105 L74.452381,56.6938566 L69.9404762,58.1746033 C69.9404762,58.1746033 81.3769841,67.2966785 85.0332341,66.10721 C84.6944444,65.0777953 84.4652778,64.0140834 84.2991071,62.9687628 C87.5406746,61.148026 97.2266865,52.4002382 100.617063,48.181676" id="Fill-45" fill="#FFFFFF"></path>
                <path d="M74.5803571,40.7332073 C73.4960317,40.7332073 72.4206349,40.6233567 71.375496,40.4603205 C70.6478175,36.8153675 65.3377976,24.8714733 62.3799603,20.3462241 C59.25,25.1354131 53.922123,36.8978797 53.2197421,40.488156 C52.2405754,40.6372744 51.2063492,40.7332073 50.0992063,40.7332073 C50.0992063,44.5183317 61.9885913,52.3952676 62.3705357,52.6497631 L62.3705357,52.6681544 L62.3888889,52.6611955 C62.3888889,52.6611955 74.5803571,44.5824527 74.5803571,40.7332073" id="Fill-47" fill="#FFFFFF"></path>
                <path d="M71.5069444,40.4603205 C70.7772817,36.8153675 65.4672619,24.8804204 62.5114087,20.3462241 L62.5024802,38.3264349 L62.5024802,47.8998421 L62.5,52.656722 L62.5183532,52.6611955 C62.5183532,52.6611955 74.7053571,44.5824527 74.7053571,40.7332073 C73.625496,40.7332073 72.5545635,40.6233567 71.5069444,40.4603205" id="Fill-49" fill="#FFFFFF"></path>
                <path d="M70.6438492,129.699785 C60.1775794,129.699785 49.6081349,134.314505 49.6081349,144.623564 C49.6081349,149.465441 51.9141865,153.424537 56.2425595,156.072882 C59.8963294,158.296238 64.9017857,159.533922 70.3258929,159.533922 C73.7852183,159.533922 77.141369,159.096508 80.7172619,157.901571 L78.7470238,153.028379 C76.422619,153.5831 74.4027778,153.761545 72.6478175,153.761545 C64.1488095,153.761545 59.264881,150.440179 59.264881,144.623564 C59.264881,138.917793 64.3869048,135.350382 72.6319444,135.350382 C74.2609127,135.350382 75.8095238,135.506459 77.797619,135.951329 L80.7559524,131.306288 C77.1597222,129.832501 73.8606151,129.699785 70.6438492,129.699785 M26.483631,129.699785 C17.3100198,129.699785 7.44047619,134.355762 7.44047619,144.584793 C7.44047619,154.877945 17.3100198,159.556787 26.483631,159.556787 C35.6622024,159.556787 45.5381944,154.877945 45.5381944,144.584793 C45.5381944,134.355762 35.6622024,129.699785 26.483631,129.699785 M26.483631,154.30036 C20.9474206,154.30036 17.0902778,150.297522 17.0902778,144.584793 C17.0902778,138.768675 20.8650794,134.850835 26.483631,134.850835 C32.109127,134.850835 35.8839286,138.768675 35.8839286,144.584793 C35.8839286,150.297522 32.0109127,154.30036 26.483631,154.30036 M98.7078373,129.699785 C94.4960317,129.699785 90.4831349,130.258979 86.0610119,131.485728 L86.0610119,159.080105 L95.5327381,159.080105 L95.5327381,135.270355 C96.5873016,135.109804 97.5798611,135.032262 98.4930556,135.032262 C100.643353,135.032262 107.611607,135.506459 107.611607,141.742097 C107.611607,146.237523 103.518849,148.273487 99.4449405,148.273487 C99.265873,148.273487 98.8338294,148.248137 98.4930556,148.229746 L96.6076389,152.235069 C98.437996,152.425443 99.4077381,152.49205 100.37996,152.49205 C108.783234,152.49205 117.263393,149.004665 117.263393,141.221674 C117.263393,134.213602 109.654762,129.699785 98.7078373,129.699785 M70.6438492,130.334533 C73.6889881,130.334533 76.8209325,130.474704 79.8040675,131.625402 L77.500496,135.231584 C75.8506944,134.8737 74.2405754,134.718119 72.6319444,134.718119 C63.593254,134.718119 58.624504,138.917793 58.624504,144.623564 C58.624504,150.581842 63.5362103,154.405737 72.6478175,154.405737 C74.4573413,154.405737 76.5441468,154.160686 78.3536706,153.761545 L79.859127,157.504916 C77.0014881,158.421995 73.6889881,158.899174 70.3258929,158.899174 C60.4563492,158.899174 50.2465278,154.683594 50.2465278,144.623564 C50.2465278,134.534704 60.7519841,130.334533 70.6438492,130.334533 M26.483631,130.334533 C35.405754,130.334533 44.9002976,134.772796 44.9002976,144.584793 C44.9002976,154.243198 35.6071429,158.922039 26.483631,158.922039 C17.3690476,158.922039 8.07390873,154.243198 8.07390873,144.584793 C8.07390873,134.772796 17.5684524,130.334533 26.483631,130.334533 M26.483631,154.935605 C32.3700397,154.935605 36.5223214,150.62111 36.5223214,144.584793 C36.5223214,138.539529 32.546131,134.213602 26.483631,134.213602 C20.4305556,134.213602 16.4563492,138.539529 16.4563492,144.584793 C16.4563492,150.62111 20.6066468,154.935605 26.483631,154.935605 M98.7078373,130.334533 C109.315972,130.334533 116.62996,134.676863 116.62996,141.221674 C116.62996,148.903762 107.811012,151.85432 100.37996,151.85432 C99.4077381,151.85432 98.453869,151.792187 97.5595238,151.689295 L98.890873,148.887856 C99.1289683,148.903762 99.25,148.903762 99.4449405,148.903762 C104.054067,148.903762 108.25,146.501463 108.25,141.742097 C108.25,136.561224 103.736607,134.392047 98.4930556,134.392047 C97.3214286,134.392047 96.1111111,134.513827 94.8943452,134.718119 L94.8943452,158.437901 L86.6944444,158.437901 L86.6944444,131.964895 C90.6780754,130.900686 94.6512897,130.334533 98.7078373,130.334533" id="Fill-51" fill="#FFFFFF"></path>
                <path d="M70.5064484,130.196847 C73.5515873,130.196847 76.6835317,130.336521 79.6666667,131.487716 L77.3625992,135.093898 C75.7132937,134.736014 74.1026786,134.579936 72.4945437,134.579936 C63.4558532,134.579936 58.4866071,138.780107 58.4866071,144.485878 C58.4866071,150.443659 63.3988095,154.268051 72.5104167,154.268051 C74.3199405,154.268051 76.406746,154.022999 78.2162698,153.623859 L79.7217262,157.36723 C76.8640873,158.284309 73.5515873,158.760991 70.1884921,158.760991 C60.3189484,158.760991 50.109127,154.544914 50.109127,144.485878 C50.109127,134.396521 60.6145833,130.196847 70.5064484,130.196847 M26.3462302,130.196847 C17.4310516,130.196847 7.93650794,134.63511 7.93650794,144.447107 C7.93650794,154.105512 17.2316468,158.784353 26.3462302,158.784353 C35.4697421,158.784353 44.7624008,154.105512 44.7624008,144.447107 C44.7624008,134.63511 35.2683532,130.196847 26.3462302,130.196847 M26.3462302,154.797421 C20.469246,154.797421 16.3189484,150.483424 16.3189484,144.447107 C16.3189484,138.401346 20.2926587,134.075916 26.3462302,134.075916 C32.4087302,134.075916 36.3849206,138.401843 36.3849206,144.447107 C36.3849206,150.483424 32.2326389,154.797421 26.3462302,154.797421 M98.5704365,130.196847 C109.178571,130.196847 116.49256,134.53868 116.49256,141.083491 C116.49256,148.765578 107.673611,151.716633 100.24256,151.716633 C99.2703373,151.716633 98.3164683,151.654501 97.422123,151.551609 L98.7534722,148.749673 C98.9915675,148.765578 99.1125992,148.765578 99.3075397,148.765578 C103.916667,148.765578 108.112599,146.36328 108.112599,141.603914 C108.112599,136.423041 103.59871,134.254361 98.3556548,134.254361 C97.1840278,134.254361 95.9737103,134.375644 94.7569444,134.579936 L94.7569444,158.300712 L86.5570437,158.300712 L86.5570437,131.826712 C90.5406746,130.763497 94.5138889,130.196847 98.5704365,130.196847" id="Fill-53" fill="#FFFFFF"></path>
            </g>
        </g>
    </g>
</svg>