<?xml version="1.0" encoding="UTF-8"?>
<svg width="14px" height="14px" viewBox="0 0 14 14" version="1.1" xmlns="http://www.w3.org/2000/svg" xmlns:xlink="http://www.w3.org/1999/xlink">
    <!-- Generator: sketchtool 51.2 (57519) - http://www.bohemiancoding.com/sketch -->
    <title>E1779A8D-2526-4E94-8220-7E45383894E6</title>
    <desc>Created with sketchtool.</desc>
    <defs>
        <path d="M6.74026442,12.1143029 C5.30913462,12.1143029 3.965625,11.5561298 2.953125,10.5436298 C1.940625,9.53112981 1.38569712,8.184375 1.38569712,6.75 C1.38569712,5.31887019 1.94387019,3.96887019 2.953125,2.95637019 C3.965625,1.94387019 5.30913462,1.38569712 6.74026442,1.38569712 C8.16814904,1.38569712 9.50841346,1.940625 10.5209135,2.94987981 L11.5042067,1.96658654 C11.2283654,1.69399038 10.9265625,1.44086538 10.6052885,1.21370192 C9.46622596,0.421875 8.13245192,0 6.74026442,0 C3.02451923,0 0,3.02776442 0,6.75 C0,10.4722356 3.02451923,13.5 6.74026442,13.5 C8.13245192,13.5 9.46622596,13.078125 10.6020433,12.2830529 C10.9265625,12.0558894 11.2251202,11.8060096 11.5009615,11.5301683 L10.5209135,10.5501202 C9.51165865,11.559375 8.16814904,12.1143029 6.74026442,12.1143029 Z M4.67307692,7.44447115 L4.67307692,6.05552885 L10.8292067,6.05552885 L9.37860577,4.60492788 L10.3846154,3.63461538 L13.5,6.75 L10.3846154,9.86538462 L9.41430288,8.89507212 L10.8292067,7.44447115 L4.67307692,7.44447115 Z" id="path-1"></path>
    </defs>
    <g id="Mobile-App" stroke="none" stroke-width="1" fill="none" fill-rule="evenodd">
        <g id="Reporting---Navigation-Drawer" transform="translate(-24.000000, -560.000000)">
            <g id="sign-out" transform="translate(24.250000, 560.250000)">
                <mask id="mask-2" fill="white">
                    <use xlink:href="#path-1"></use>
                </mask>
                <use id="Mask" fill="#464D5A" fill-rule="nonzero" transform="translate(6.750000, 6.750000) scale(-1, 1) translate(-6.750000, -6.750000) " xlink:href="#path-1"></use>
            </g>
        </g>
    </g>
</svg>